<mxfile host="app.diagrams.net" modified="2020-08-06T13:24:19.789Z" agent="5.0 (Macintosh; Intel Mac OS X 10_15_6) AppleWebKit/605.1.15 (KHTML, like Gecko) Version/13.1.2 Safari/605.1.15" etag="jQ55ZcYKdxNOcJoWNyLE" version="13.6.0" type="github">
  <diagram id="UnvUJHMVzdg0J_Q6UrO9" name="Page-1">
    <mxGraphModel dx="2703" dy="2789" grid="1" gridSize="10" guides="1" tooltips="1" connect="1" arrows="1" fold="1" page="1" pageScale="1" pageWidth="827" pageHeight="1169" math="0" shadow="0">
      <root>
        <mxCell id="0" />
        <mxCell id="1" parent="0" />
        <mxCell id="c4h4sEiwfJOokr6ou1IR-1" value="&lt;font style=&quot;font-size: 4px&quot;&gt;哦卡丘&lt;/font&gt;" style="ellipse;whiteSpace=wrap;html=1;aspect=fixed;" vertex="1" parent="1">
          <mxGeometry x="360" y="120" width="50" height="50" as="geometry" />
        </mxCell>
        <mxCell id="c4h4sEiwfJOokr6ou1IR-2" value="" style="rounded=1;whiteSpace=wrap;html=1;" vertex="1" parent="1">
          <mxGeometry x="300" y="-1070" width="1100" height="260" as="geometry" />
        </mxCell>
        <mxCell id="c4h4sEiwfJOokr6ou1IR-3" value="" style="ellipse;whiteSpace=wrap;html=1;" vertex="1" parent="1">
          <mxGeometry x="400" y="-1050" width="120" height="120" as="geometry" />
        </mxCell>
      </root>
    </mxGraphModel>
  </diagram>
</mxfile>
